# xmcd
#
# Track frame offsets:
#	150
#	11889
#	32969
#	57861
#	78568
#	110600
#	134853
#	173812
#	191530
#	217658
#	244152
#	270758
#
# Disc length: 3912 seconds
#
# Revision: 1
# Processed by: cddbd v1.5.2PL0 Copyright (c) Steve Scherf et al.
# Submitted via: audiograbber 1.83.01
#
DISCID=a60f460c
DTITLE=Thunder Blue - Live at Skip's
DYEAR=1997
DGENRE=Blues
TTITLE0=Intro
TTITLE1=Thunder Blue train
TTITLE2=Whiskey man
TTITLE3=Pretty baby, you're the one
TTITLE4=Turtle Blues
TTITLE5=The message
TTITLE6=Good life
TTITLE7=TV Mama
TTITLE8=Whippin' post
TTITLE9=Mississippi Blues
TTITLE10=Untangled light
TTITLE11=Waiting
EXTD=
EXTT0=
EXTT1=
EXTT2=
EXTT3=
EXTT4=
EXTT5=
EXTT6=
EXTT7=
EXTT8=
EXTT9=
EXTT10=
EXTT11=
PLAYORDER=
